{
  "title": "Strange Magic 2015 DVDRIP x264 AC3 TiTAN",
  "uid": 11893273,
  "size": 1707640434,
  "categoryP": "video",
  "categoryS": "movies",
  "magnet": "?xt=urn:btih:baf312f86d4b1c9bd095568116d16c8e02273b80&amp;dn=Strange+Magic+2015+DVDRIP+x264+AC3+TiTAN&amp;tr=udp%3A%2F%2Ftracker.openbittorrent.com%3A80&amp;tr=udp%3A%2F%2Fopen.demonii.com%3A1337&amp;tr=udp%3A%2F%2Ftracker.coppersurfer.tk%3A6969&amp;tr=udp%3A%2F%2Fexodus.desync.com%3A6969",
  "seeders": 844,
  "leechers": 32,
  "uploader": "xxxlavalxxx",
  "files": 3,
  "time": 1431065361,
  "description": " &lt;a href=&quot;http://extraimago.com/image/N8m&quot; rel=&quot;nofollow&quot; target=&quot;_NEW&quot;&gt;http://extraimago.com/image/N8m&lt;/a&gt;\n &lt;a href=&quot;\nhttp://www.imdb.com/title/tt4191054/&quot; rel=&quot;nofollow&quot; target=&quot;_NEW&quot;&gt;\nhttp://www.imdb.com/title/tt4191054/&lt;/a&gt;\n\n\nGoblins, elves, fairies and imps, and their misadventures sparked by the battle over a powerful potion.\n\nDirector: Gary Rydstrom\nWriters: Irene Mecchi (screenplay), Gary Rydstrom (screenplay)\nStars: Evan Rachel Wood, Elijah Kelley, Kristin Chenoweth\nGenres: Animation | Family | Fantasy | Musical\nCountry: USA\nLanguage: English\n\n\nSource R1 DVDR PlAYNOW {BIG THX}\n\nGeneral\n\nFormat                                   : Matroska\nFormat version                           : Version 2\nFile size                                : 1.59 GiB\nDuration                                 : 1h 39mn\nOverall bit rate mode                    : Variable\nOverall bit rate                         : 2 291 Kbps\n\nVideo\nID                                       : 1\nFormat                                   : AVC\nFormat/Info                              : Advanced Video Codec\nFormat profile                           : &lt;a class=&quot;__cf_email__&quot; href=&quot;/cdn-cgi/l/email-protection&quot; data-cfemail=&quot;a1e9c8c6c9e1ed958f90&quot;&gt;[email&amp;#160;protected]&lt;/a&gt;&lt;script cf-hash='f9e31' type=&quot;text/javascript&quot;&gt;\n/* &lt;![CDATA[ */!function(){try{var t=&quot;currentScript&quot;in document?document.currentScript:function(){for(var t=document.getElementsByTagName(&quot;script&quot;),e=t.length;e--;)if(t[e].getAttribute(&quot;cf-hash&quot;))return t[e]}();if(t&amp;&amp;t.previousSibling){var e,r,n,i,c=t.previousSibling,a=c.getAttribute(&quot;data-cfemail&quot;);if(a){for(e=&quot;&quot;,r=parseInt(a.substr(0,2),16),n=2;a.length-n;n+=2)i=parseInt(a.substr(n,2),16)^r,e+=String.fromCharCode(i);e=document.createTextNode(e),c.parentNode.replaceChild(e,c)}}}catch(u){}}();/* ]]&gt; */&lt;/script&gt;\nFormat settings, CABAC                   : Yes\nFormat settings, ReFrames                : 3 frames\nCodec ID                                 : V_MPEG4/ISO/AVC\nDuration                                 : 1h 39mn\nBit rate mode                            : Variable\nBit rate                                 : 1 862 Kbps\nMaximum bit rate                         : 40.0 Mbps\nWidth                                    : 720 pixels\nHeight                                   : 304 pixels\nDisplay aspect ratio                     : 2.35:1\nFrame rate mode                          : Constant\nFrame rate                               : 23.976 fps\nColor space                              : YUV\nChroma subsampling                       : 4:2:0\nBit depth                                : 8 bits\nScan type                                : Progressive\nBits/(Pixel*Frame)                       : 0.355\nStream size                              : 1.29 GiB (81%)\nDefault                                  : Yes\nForced                                   : No\nColor primaries                          : BT.709\nTransfer characteristics                 : BT.709\nMatrix coefficients                      : BT.709\n\nAudio\nID                                       : 2\nFormat                                   : AC-3\nFormat/Info                              : Audio Coding 3\nMode extension                           : CM (complete main)\nFormat settings, Endianness              : Big\nCodec ID                                 : A_AC3\nDuration                                 : 1h 39mn\nBit rate mode                            : Constant\nBit rate                                 : 384 Kbps\nChannel(s)                               : 6 channels\nChannel positions                        : Front: L C R, Side: L R, LFE\nSampling rate                            : 48.0 KHz\nBit depth                                : 16 bits\nCompression mode                         : Lossy\nStream size                              : 273 MiB (17%)\nDefault                                  : Yes\nForced                                   : No\n\n &lt;a href=&quot;\nhttp://extraimago.com/image/N8i&quot; rel=&quot;nofollow&quot; target=&quot;_NEW&quot;&gt;\nhttp://extraimago.com/image/N8i&lt;/a&gt; &lt;a href=&quot;\nhttp://extraimago.com/image/N8l&quot; rel=&quot;nofollow&quot; target=&quot;_NEW&quot;&gt;\nhttp://extraimago.com/image/N8l&lt;/a&gt; &lt;a href=&quot;\nhttp://extraimago.com/image/N8I&quot; rel=&quot;nofollow&quot; target=&quot;_NEW&quot;&gt;\nhttp://extraimago.com/image/N8I&lt;/a&gt; &lt;a href=&quot;\nhttp://extraimago.com/image/N8d&quot; rel=&quot;nofollow&quot; target=&quot;_NEW&quot;&gt;\nhttp://extraimago.com/image/N8d&lt;/a&gt; &lt;a href=&quot;\nhttp://extraimago.com/image/N8h&quot; rel=&quot;nofollow&quot; target=&quot;_NEW&quot;&gt;\nhttp://extraimago.com/image/N8h&lt;/a&gt; &lt;a href=&quot;\nhttp://extraimago.com/image/N8b&quot; rel=&quot;nofollow&quot; target=&quot;_NEW&quot;&gt;\nhttp://extraimago.com/image/N8b&lt;/a&gt;",
  "parsed": {
    "xt": "urn:btih:baf312f86d4b1c9bd095568116d16c8e02273b80",
    "dn": "Strange Magic 2015 DVDRIP x264 AC3 TiTAN",
    "tr": [
      "udp://exodus.desync.com:6969",
      "udp://open.demonii.com:1337",
      "udp://tracker.coppersurfer.tk:6969",
      "udp://tracker.openbittorrent.com:80"
    ],
    "infoHash": "baf312f86d4b1c9bd095568116d16c8e02273b80",
    "infoHashBuffer": {
      "type": "Buffer",
      "data": [
        186,
        243,
        18,
        248,
        109,
        75,
        28,
        155,
        208,
        149,
        86,
        129,
        22,
        209,
        108,
        142,
        2,
        39,
        59,
        128
      ]
    },
    "name": "Strange Magic 2015 DVDRIP x264 AC3 TiTAN",
    "announce": [
      "udp://exodus.desync.com:6969",
      "udp://open.demonii.com:1337",
      "udp://tracker.coppersurfer.tk:6969",
      "udp://tracker.openbittorrent.com:80"
    ],
    "urlList": []
  },
  "previous": 876,
  "peers": 9,
  "last_updated": "2016-12-25T12:18:18.021Z"
}